<svg width="100" height="100" viewBox="0 0 100 100" fill="none" xmlns="http://www.w3.org/2000/svg">
<circle cx="50" cy="50" r="50" fill="#E5E7EB"/>
<path d="M50 25C36.1929 25 25 36.1929 25 50C25 63.8071 36.1929 75 50 75C63.8071 75 75 63.8071 75 50C75 36.1929 63.8071 25 50 25ZM50 32.1429C58.2679 32.1429 65.3036 37.4286 67.8571 44.6429H32.1429C34.6964 37.4286 41.7321 32.1429 50 32.1429ZM30.8393 50C30.8393 48.6071 31.0357 47.2679 31.3929 46H68.6071C68.9643 47.2679 69.1607 48.6071 69.1607 50C69.1607 51.3929 68.9643 52.7321 68.6071 54H31.3929C31.0357 52.7321 30.8393 51.3929 30.8393 50ZM50 67.8571C41.7321 67.8571 34.6964 62.5714 32.1429 55.3571H67.8571C65.3036 62.5714 58.2679 67.8571 50 67.8571Z" fill="#9CA3AF"/>
</svg>
